/* XPM */
static char *c4d6a75b871e44a5ba2779e9dcc84966qKMqrwFgx0LraLM9[] = {
/* columns rows colors chars-per-pixel */
"32 32 197 2 ",
"   c #312F2C",
".  c #3E362C",
"X  c #343333",
"o  c #3B3732",
"O  c #3B3A33",
"+  c #3C3C3B",
"@  c #433C34",
"#  c #403F3F",
"$  c #3F4632",
"%  c #4C4235",
"&  c #40403F",
"*  c #4A443C",
"=  c #54493D",
"-  c #5B4B39",
";  c #5B4835",
":  c #5F503E",
">  c #515E38",
",  c #604C35",
"<  c #64533E",
"1  c #6F593E",
"2  c #69553E",
"3  c #715B3E",
"4  c #5F7B20",
"5  c #67692F",
"6  c #6C7A25",
"7  c #6D633E",
"8  c #7D613F",
"9  c #657734",
"0  c #757539",
"q  c gray27",
"w  c #4B4741",
"e  c #4E4942",
"r  c #4A4A4A",
"t  c #534D45",
"y  c #5E5346",
"u  c #5A544D",
"i  c #5A5D45",
"p  c #535353",
"a  c #5E5853",
"s  c #5C5C5C",
"d  c #645543",
"f  c #685742",
"g  c #665846",
"h  c #6B5A47",
"j  c #645C4B",
"k  c #6C5C49",
"l  c #755E44",
"z  c #795F40",
"x  c #725F4A",
"c  c #605A53",
"v  c #695E52",
"b  c #6E6248",
"n  c #746046",
"m  c #796145",
"M  c #74624D",
"N  c #7B654B",
"B  c #7E694D",
"V  c #757D41",
"C  c #7D774C",
"Z  c #6C6154",
"A  c #6D6359",
"S  c #746555",
"D  c #776856",
"F  c #7D6A52",
"G  c #75695C",
"H  c #7C6D5B",
"J  c #776756",
"K  c #7F705E",
"L  c #7D7A57",
"P  c #656463",
"I  c #6B6B6B",
"U  c #6C6864",
"Y  c #736C64",
"T  c #7D7264",
"R  c #7D756D",
"E  c #826645",
"W  c #80674A",
"Q  c #846A4C",
"!  c #8A6E4D",
"~  c #8E6B45",
"^  c #8F704D",
"/  c #97774A",
"(  c #836D53",
")  c #826F5A",
"_  c #867055",
"`  c #8A7154",
"'  c #85725C",
"]  c #8C755B",
"[  c #937553",
"{  c #9E7B55",
"}  c #927A5D",
"|  c #9B7C59",
" . c #917659",
".. c #A07F59",
"X. c #A07D56",
"o. c #847563",
"O. c #897763",
"+. c #8C7964",
"@. c #8B7C6C",
"#. c #857869",
"$. c #947D62",
"%. c #997F61",
"&. c #887E72",
"*. c #5E8618",
"=. c #699D0D",
"-. c #688E19",
";. c #689418",
":. c #769E17",
">. c #74B404",
",. c #6FA31C",
"<. c #72A515",
"1. c #65822D",
"2. c #748B21",
"3. c #6C9129",
"4. c #769F27",
"5. c #799C27",
"6. c #67823B",
"7. c #758C37",
"8. c #7E9C3B",
"9. c #7F8B52",
"0. c #778948",
"q. c #89B617",
"w. c #87A134",
"e. c #8CAF30",
"r. c #838047",
"t. c #849342",
"y. c #85875E",
"u. c #9D845D",
"i. c #879853",
"p. c #96985C",
"a. c #A4835C",
"s. c #AF8759",
"d. c #AE885A",
"f. c #B38A5B",
"g. c #B98D5B",
"h. c #93AA45",
"j. c #97B24D",
"k. c #8F806F",
"l. c #968067",
"z. c #9D8262",
"x. c #93826D",
"c. c #9D8569",
"v. c #938A6E",
"b. c #8D9760",
"n. c #929263",
"m. c #8F8171",
"M. c #948573",
"N. c #998774",
"B. c #968A73",
"V. c #9A8A75",
"C. c #958879",
"Z. c #9C8D7B",
"A. c #948779",
"S. c #9D927D",
"D. c #A28462",
"F. c #AD8B65",
"G. c #A48A6C",
"H. c #AA8C69",
"J. c #A68865",
"K. c #B18F68",
"L. c #B1926A",
"P. c #BA976E",
"I. c #A28C72",
"U. c #A08F7C",
"Y. c #AB9171",
"T. c #A3927E",
"R. c #AA967E",
"E. c #A49C79",
"W. c #B89E7F",
"Q. c #B89A77",
"!. c #A3A26E",
"~. c #C69964",
"^. c #C39B6A",
"/. c #CBA16E",
"(. c #C8A477",
"). c #9C8F80",
"_. c #9F9181",
"`. c #A59583",
"'. c #A89681",
"]. c #AA9985",
"[. c #AD9D8A",
"{. c #B09C85",
"}. c #B99F80",
"|. c #B19F89",
" X c #AEA089",
".X c #B3A287",
"XX c #B5A28C",
"oX c #B8A58F",
"OX c #B5A491",
"+X c #B9A691",
"@X c #BDAA95",
"#X c #BFAC96",
"$X c #BDAA95",
"%X c #BFAD98",
"&X c #C2A480",
"*X c #C0AD97",
"=X c #C1AE99",
/* pixels */
"#XU.F @.F.}.(.x H N.| T [ Z.XXoX#XZ.( o.K.}.&Xn L M.X.H | C.XXoX",
"V.d f.{ |.+XOX] ~ _ {.V.G.x.@X+XZ.< f.{ [.+X+XC =.V {.V.F.@.@X@X",
"k x.'.| `.oX].F ] OX#.+XT.W x M f M.R.a.`.XXXXk C [.+X@XS.Q x M ",
"XX@X@Xt.w..X`.l H oXa c M.^.~.u.|.+X#Xo.g .X].2 ) oXoX+XM.^.~.z.",
"OX@XoX0 -.b n | ^ S a X @ c.p.e.XX@X.XS a.M x | [ S M.A.k I.I. .",
"x.'.S.d v.$.F.[.R.E e # X t 7.e.i.`.S.f T.$.F.[.R.2.<.5 { H F K.",
"f.( N a.M ! '.OX@XY.v r X X > j.;.b B a.M Q '.XX|.7.;.y.OXC.c.(.",
"F.Z.#X+XZ.G.[.#X=XZ.c r + X X i 0 B.$X+XZ.J.`.#X@Xx.U.#X#XoXoXU.",
"f._ K O.$.O.#XXX+XZ.u r q X X X N _ 7.h.r.@.+XoX+XZ.@.oXoX|.oX@.",
"`.+X].k.L.( |.XX+XM.t r r X X X X T E.y.r.( |.XXOXm.( @.M.H N ( ",
"#X@XoX`.} m V.XXXXg u r r q X X X X w w @ @ w t t O w @ t o.a.].",
"[.+XXX#.( o.. = % m t r r r X X X X X X X X X X X X r P OX'.` T.",
"Z.U.k.b } D d.B m y.> r r # o * t X X X X X X q s I U `.+X`.W J ",
"2 M ! x.|.[.c.V.v.3.$ q # A l { d f   X + p P I I P | Z.OXZ.E { ",
"C.+./.`.oXU.n M.V.O X X @ G ( `.C.$.B p I I I I R A./.N #.H ` `.",
"%X`.J.M h 1 f.S + X X X e D.].=X%X`._ p I I I I ].|.$.N.$.z.[.%X",
"*XU.( #.J.W.$.X X X X X @ V.XXXX%XT.= s I I R h H A.X.F | C.XX+X",
"N.< g...|.&.X X X X X + X Z #X@XA.- @ p P &.XX' / _ |.T.H.@.#X#X",
"h @.].%.G X X X + q r r r X o % @ X q r r `..XM $.OX+X@X`.Q x x ",
"|.*X@Xd X X # q r r r r r r q + + q r r r ].].2 ) XXoXoXM.^.~.%.",
"+X*XA + q r r r r r r r r r r r r q r r r 4.4./ ^ S '.].g G.G.` ",
"@.].&., M.o.D.).V.l - - ! A r r r q r r r b.,.S.R.E , 2 | T F K.",
"f.( ( ..x ! T.oX@XY.P.|.XXC.G r r r q r r *.0.XX+XY.P.].XXC.M./.",
"F.C.+X+XZ.H.|.@X*XV.T.=X#XoXOXo.r r q r r z.].#X%XN.'.=X#XoXoXU.",
"s.) H O.} o.@XXX+XZ.O.OXXX|.XX@.F r r r r ) @X|.+XZ.+.OXoX|.XX@.",
"'.OX].M.K._ oXXXoXM.F M.M.H N F `.#.r q q H }.oX+XM.( @.M.D N ( ",
"*X+X|.|.5.-.v.|.{.g o.! ) O.D.[.#XoXY q r N M.|.].g O.W H O.J.].",
"|.OX|.R.8.1.% h 7.6 J V.#X'.M T.|.oX|.c q J @ j y z H x.#X'._ U.",
"U.T.n.<.*.9 d.B 4 L ] XX+X'.l S Z.T.@.x j v s.N z N.} `.+X`.W S ",
"d S 0 6.R. Xl.V.N.F | `.+X_.l | d M ! x..X Xc.C.A.;.q.!.+XZ.W X.",
"Z.+./.Z.XXB.m B.XX_.^.l o.G _ [.Z.+.^.'.XXM.N M.XXi.>.*.o.H ] ].",
"=X`.J.M f 1 s.@.XX|.l.`.$.| ].#X=X`.%.F h 1 f.O.XX X9 ' } $.[.#X"
};
