/* XPM */
static char *_dbd4a5c294e4b63f0a1924061e61d733jfMgSCtr3XlvLcP[] = {
/* columns rows colors chars-per-pixel */
"32 32 143 2 ",
"   c #251B1F",
".  c #3D181D",
"X  c #2E2014",
"o  c #2F221C",
"O  c #312316",
"+  c #34261B",
"@  c #36291D",
"#  c #392B1E",
"$  c #1F1423",
"%  c #3C0C25",
"&  c #201622",
"*  c #261C23",
"=  c #2B1C23",
"-  c #3D1324",
";  c #361A22",
":  c #3C1C21",
">  c #2D2326",
",  c #322424",
"<  c #3A2324",
"1  c #362921",
"2  c #3C2D22",
"3  c #3A2F29",
"4  c #3E3124",
"5  c #3F3128",
"6  c #44191B",
"7  c #4D1B1A",
"8  c #541D11",
"9  c #581D17",
"0  c #511B19",
"q  c #601E16",
"w  c #45211E",
"e  c #4B221C",
"r  c #54271C",
"t  c #52281F",
"y  c #662215",
"u  c #692114",
"i  c #6F2916",
"p  c #712B17",
"a  c #6B3019",
"s  c #773417",
"d  c #783417",
"f  c #7C331C",
"g  c #550A26",
"h  c #5E0F27",
"j  c #441920",
"k  c #551721",
"l  c #6D0827",
"z  c #780727",
"x  c #621425",
"c  c #452723",
"v  c #4D2C26",
"b  c #522D26",
"n  c #562128",
"m  c #423425",
"M  c #453827",
"N  c #443629",
"B  c #46382A",
"V  c #4A3B2B",
"C  c #5E3327",
"Z  c #5A3E2E",
"A  c #612426",
"S  c #6E2427",
"D  c #7E2D2A",
"F  c #643423",
"G  c #6B3923",
"H  c #783F22",
"J  c #753F28",
"K  c #5E422E",
"L  c #4D4030",
"P  c #7C4228",
"I  c #7F5535",
"U  c #813B19",
"Y  c #8E3B1C",
"T  c #940928",
"R  c #801B2A",
"E  c #9A102A",
"W  c #971D28",
"Q  c #A50022",
"!  c #A70429",
"~  c #BE0026",
"^  c #B2072A",
"/  c #B30D2A",
"(  c #B41E2D",
")  c #932C28",
"_  c #9A2E2E",
"`  c #863D20",
"'  c #9B342F",
"]  c #A73429",
"[  c #AD3930",
"{  c #C10629",
"}  c #CA032A",
"|  c #D2012A",
" . c #DB002A",
".. c #DC002A",
"X. c #91461C",
"o. c #9A4A1E",
"O. c #8E4B28",
"+. c #934B24",
"@. c #904C28",
"#. c #9B5024",
"$. c #975029",
"%. c #9E592E",
"&. c #AE4F29",
"*. c #A65421",
"=. c #A85621",
"-. c #AE5922",
";. c #A45B2D",
":. c #B25C23",
">. c #A34932",
",. c #A35334",
"<. c #A3612D",
"1. c #B5612C",
"2. c #BD622A",
"3. c #AB6637",
"4. c #A76937",
"5. c #B16430",
"6. c #B06D34",
"7. c #BD7034",
"8. c #C36426",
"9. c #C86727",
"0. c #C3652A",
"q. c #CD6A2A",
"w. c #D26E2B",
"e. c #D86F2B",
"r. c #DD722B",
"t. c #C17436",
"y. c #C87433",
"u. c #C67837",
"i. c #C67139",
"p. c #C77A38",
"a. c #CA7C3A",
"s. c #D67934",
"d. c #DA7A31",
"f. c #E27C31",
"g. c #D5853D",
"h. c #DC8D3F",
"j. c #E48436",
"k. c #E58B3A",
"l. c #E98C3B",
"z. c #E6913F",
"x. c #EC933E",
"c. c #E19041",
"v. c #ED9640",
/* pixels */
"4 L V V L L 4 L V V V B B B B V M M M V V V V M L V M M V V V Z ",
"O m 2 2 w 4 # # 2 2 m # # M 4 c # m # m # m w M m 2 m 2 m m 2 m ",
"O M # # 2 2 4 2 2 2 2 # # 2 2 # # # # m 2 m # m # # 2 4 4 m 2 m ",
"X 4 # @ @ @ # @ 1 @ @ @ # # + + # + # # # @ @ # # + 2 + + + @ # ",
"4 4 4 4 4 4 4 M m 4 4 m M 4 # w # 2 m m m 2 m m # 4 m m m m m M ",
"4 2 4 2 # 2 4 4 2 , , : 6 7 0 9 0 e I 1 2 + 2 m # 2 4 # # 4 2 m ",
"5 4 4 2 # # # 1 K F 9 q y u q u q 8 6.Z , @ 2 # # m 4 4 2 2 2 m ",
"@ @ 2 @ + + @ > <.h.+.f p y q q U ;.h.u.< + # @ + # # @ + # # # ",
"M L M L M B M 4 = ;.t.p.a.p.5.7.c.l.f.@.< N 2 M M M B V B m N V ",
"# # 4 @ # # # # > . y i f ` ;.y.f.0.J = 3 2 # 2 4 4 # m m # 2 4 ",
"2 # # 4 # # 2 # m = e p p u y Y 0.S % 2 2 3 2 m 2 # 2 # 2 # m m ",
"@ @ @ @ @ @ + @ # #     : j k x T  .l @ @ @ @ @ @ + + # + 1 + 2 ",
"M M 4 4 L M M M m N m % Q Q  . ...! n = 4 B m m M # m M M M N B ",
"3 4 2 4 4 4 # # # 2 2 ; Q ~  .} z h g.%.> 3 2 # # + 2 2 4 3 3 m ",
"4 3 # 4 4 4 # 4 2 2 < = A x g - D ..' x.5.; 2 2 2 + m 3 3 < 3 N ",
"@ 1 + # O @ @ @ # + , O.e.W { ] s./ } i.l.1.; + @ + # + # + # 2 ",
"M M M M M M 5 B N , $.r.2.&.) 9.j.>. .( g.l.2.v 3 V B 2 B B B V ",
"2 3 4 2 4 4 4 < = *.r.r.r.r.0.r.l.g.^ | [ z.j.w.b + 2 + m m < m ",
"2 2 2 4 2 # 2 * J r.r.r.r.r.r.r.k.v._ E R i.x.f.w.C = + m m m m ",
"@ + + + + + = F r.r.r.r.r.r.r.r.k.v.3.,.g.4.v.x.r.e.F o 2 + + 2 ",
"m N 4 M m > b r.r.r.r.r.r.r.r.r.l.x.v.h.v.v.v.v.j.r.P N N B N B ",
"4 4 m m < < q.r.r.r.r.r.r.r.r.r.l.x.v.v.v.v.x.l.j.e.b # 3 # m m ",
"4 4 4 m # = F o.o.o.+.#.o.-.8.9.w.d.j.j.d.w.9.8.:.#.* # # # 2 m ",
"+ O + + O   = p d d d d d d =.=.-.:.:.:.:.-.-.=.=.H * + o . O # ",
"B B m N N N , j s s s s s s o.=.=.=.=.=.=.=.=.=.*.c 3 B M m N 4 ",
"B 2 2 # 2 2 @ & r s s s s s U *.=.=.=.=.=.=.=.=.+.= 2 m 2 # < 2 ",
"V 2 2 # 4 # # 1 $ a s s s s s X.=.=.*.*.=.=.=.=.G * 4 2 4 1 4 1 ",
"m # # + + + @ +   . # # w w e t a G G G G P a P <   + @ @ @ @ @ ",
"5 m M m 4 M m 5 # > 1 1 > > > > > > > * > > $ > > 5 4 # B 5 M B ",
"2 2 2 2 m 2 2 # # # 2 3 4 4 2 2 4 3 # # 4 4 3 2 # 4 4 @ M 4 4 4 ",
"4 # # # 2 2 # 2 # # # # # # # 2 3 # # # 4 4 4 4 2 4 # O 4 @ 2 4 ",
"2 # @ @ # @ @ @ # @ # + + @ @ # @ @ # @ @ 2 @ # 2 @ @ o 2 @ @ 4 "
};
