/* XPM */
static char *_366f5447c084f1bfb971b016dff0211pCnaPHfbdb5Opupf[] = {
/* columns rows colors chars-per-pixel */
"32 32 102 2 ",
"   c #2E2014",
".  c #2D201E",
"X  c #312316",
"o  c #34261B",
"O  c #36291D",
"+  c #392B1E",
"@  c #320F25",
"#  c #3A0E24",
"$  c #221525",
"%  c #261A24",
"&  c #2B1D23",
"*  c #321423",
"=  c #391627",
"-  c #2D2224",
";  c #332522",
":  c #382322",
">  c #362921",
",  c #3C2E22",
"<  c #362A28",
"1  c #3A2D28",
"2  c #3E3124",
"3  c #3E3128",
"4  c #440D24",
"5  c #4A0C24",
"6  c #4F0A28",
"7  c #530923",
"8  c #471526",
"9  c #4E1424",
"0  c #441C24",
"q  c #481922",
"w  c #461C28",
"e  c #591524",
"r  c #541329",
"t  c #581529",
"y  c #640723",
"u  c #6A0623",
"i  c #630925",
"p  c #760523",
"a  c #7D062B",
"s  c #462029",
"d  c #423425",
"f  c #453827",
"g  c #443629",
"h  c #46392A",
"j  c #4A3B2B",
"k  c #4D4030",
"l  c #850423",
"z  c #8B0322",
"x  c #82062C",
"c  c #880629",
"v  c #8A0D2B",
"b  c #940224",
"n  c #9B0123",
"m  c #9D032E",
"M  c #98042E",
"N  c #871930",
"B  c #A30021",
"V  c #AC0026",
"C  c #A10229",
"Z  c #A50429",
"A  c #A9022F",
"S  c #B5002A",
"D  c #B80329",
"F  c #BC0229",
"G  c #BB002D",
"H  c #B40C2D",
"J  c #BB0130",
"K  c #BE0130",
"L  c #AE1F34",
"P  c #CD002E",
"I  c #CC002F",
"U  c #D2012A",
"Y  c #D0022A",
"T  c #D6002A",
"R  c #D4042B",
"E  c #D3002D",
"W  c #DA002B",
"Q  c #DC002A",
"!  c #DC012B",
"~  c #DD042C",
"^  c #DE0A2E",
"/  c #C20031",
"(  c #C30031",
")  c #C80030",
"_  c #CA0F30",
"`  c #D61232",
"'  c #E01232",
"]  c #E11835",
"[  c #E21E37",
"{  c #E32038",
"}  c #E42339",
"|  c #E5283B",
" . c #E52A3C",
".. c #E62E3E",
"X. c #E6303F",
"o. c #E73140",
"O. c #E73541",
"+. c #E83642",
"@. c #E93943",
"#. c #E93A44",
"$. c #EA3F46",
"%. c #EA4046",
/* pixels */
"2 k j j j f d j j j j j f j j j f f j j j j j f j j f j j j j j ",
"X d , , d 2 , , , , d + , d , , , , , , , , , f 2 , f + 2 2 d f ",
"X f + + , , , 2 > , , + + d + + + + , , , d , d , + , , 2 2 + d ",
"  2 + O > O + O O > O o + O o o O + + + + O o + + + , O o o + 0 ",
"d 2 2 d d d d d d d 2 f d 2 + + + , d d d + d f + d f d 2 2 f f ",
"2 + 2 , O + , 2 , > + f 2 2 2 + + , d , + O + d o 2 + + 2 2 , 2 ",
"2 , 2 2 O , , , , , , d O + + , + + , d + + + + + d 2 2 , , , 2 ",
"O O , > o o O O : q 9 = o o o o X + O q e 9 : > X , + + o + + , ",
"f h h j f j 1 r c F ` L N s g g h 0 x H { H v r d f f j f 2 f j ",
", + 2 , + > r G W ! o.$.$._ 0 , t U X.%.%.%.X.R p ; , 2 2 + 1 d ",
", + , 2 + 8 A ( E ! ..$.%. .D e R ] %.%.%.%.X.^ W i > , , + d 2 ",
"O O O O > x ( ( I ! ' $.%.@.^ U ^ @.%.%.%.%.{ Q W Z . + O + + > ",
"f f d d 2 M ( ( ) W ~ } @.%. .' X.%.%.%.$.X.^ Q ! U & f d f f j ",
", 1 + d < n B G ( ) W W ! [ +.@.O.+.O...' ! ! ! ! P = , 2 1 1 3 ",
"1 1 + d - n B V ( ( ) W ! ! ! Q Q ! ! ! ! ! ! W E G & 1 > 1 2 d ",
"+ > o + . l B B G ( ( ) U W ! ! Q ! ! ! ! W U P ( m & O O O + 1 ",
"h g g g d u B B S ( ( ( ( ) E R R R T U P ( ( ( ( a 1 + j h h j ",
"2 2 2 , , 5 b B V ( ( ( ( ( ( ( ( ( ( ( ( ( ( ( K @ > o d , d d ",
"2 , 2 2 , & y B B ( ( ( ( ( ( ( ( ( ( ( ( ( ( K 6 & , o d d , d ",
"o o X O o . * z B S ( ( ( ( ( ( ( ( ( ( ( ( ( x % + O o > O O : ",
"d d 2 f f f 2 5 B V ( ( ( ( ( ( ( ( ( ( ( ( C = d f g g h g g h ",
"2 2 d d , , + ; p B G ( ( ( ( ( ( ( ( ( G V 7 ; , , , , d + , d ",
"2 2 2 d + , , + * z V ( ( ( ( ( ( ( ( ( V y - d , , + + + , , d ",
"o X o O o o o o - 4 b G ( ( ( ( ( ( ( S z * : + o O o o o X o : ",
"h f g g g g d d f , * n G ( ( ( ( ( G n 4 , f 2 f j j j f d g 2 ",
"j , , + , + O O + + ; # l G ( ( ( G n 5 - + , O , , , d , O 1 , ",
"j , , + , + , , + , + > $ y n V b 7 $ - , > 2 O d d , , , , > > ",
"2 + + o O o o o o O o O ; % # 7 @ % > o o + o o > O o O O O O O ",
"d d g f d d f d , d d f d f 1 < d f g d d f g d d d d + f d d j ",
", , , + d , , O + + , + > d , , 1 , , O 2 2 , , , , 2 O g 2 1 2 ",
"d + > > + , + > + + + + + + + , d + + + 2 2 2 2 2 , + o 2 O + d ",
"> O + O + O + O O O O O o O O O O o + o + + + > , + O X , O O 2 "
};
