/* XPM */
static char *_58997b9002649f9b6435611adf28915fqw2nZkAbhyrT1aH[] = {
/* columns rows colors chars-per-pixel */
"32 32 190 2 ",
"   c #3E372C",
".  c #4A4135",
"X  c #51493F",
"o  c #614C36",
"O  c #604F3B",
"+  c #64523D",
"@  c #6C563E",
"#  c #6F593E",
"$  c #725B3E",
"%  c #5F7B20",
"&  c #5F742B",
"*  c #67692F",
"=  c #6D7A2A",
"-  c #6D633E",
";  c #7D613F",
":  c #657734",
">  c #757539",
",  c #5F5344",
"<  c #655543",
"1  c #685742",
"2  c #665846",
"3  c #6B5A46",
"4  c #655B4A",
"5  c #6C5C49",
"6  c #765F44",
"7  c #795F40",
"8  c #725F4A",
"9  c #6E6248",
"0  c #746146",
"q  c #7A6144",
"w  c #73624D",
"e  c #7B654C",
"r  c #7E694D",
"t  c #757D41",
"y  c #7D774C",
"u  c #756654",
"i  c #786652",
"p  c #776857",
"a  c #7D6A53",
"s  c #776A5B",
"d  c #7C6D5B",
"f  c #7C7757",
"g  c #7F705E",
"h  c #7D7D57",
"j  c #7B6F60",
"k  c #7F7162",
"l  c #816545",
"z  c #80674A",
"x  c #846A4C",
"c  c #8B6E4D",
"v  c #8E6B45",
"b  c #956F48",
"n  c #8F704D",
"m  c #957047",
"M  c #997E4D",
"N  c #836D53",
"B  c #826F5A",
"V  c #867056",
"C  c #8A7154",
"Z  c #83715C",
"A  c #8C765B",
"S  c #947654",
"D  c #997750",
"F  c #9E7B54",
"G  c #927A5D",
"H  c #9C7D5A",
"J  c #917659",
"K  c #A17E56",
"L  c #A07F59",
"P  c #847563",
"I  c #887763",
"U  c #857965",
"Y  c #8C7965",
"T  c #877969",
"R  c #8B7C6B",
"E  c #947D63",
"W  c #997F61",
"Q  c #8C7F70",
"!  c #558F0C",
"~  c #5F881A",
"^  c #699D0D",
"/  c #638E14",
"(  c #698E1E",
")  c #689418",
"_  c #769E17",
"`  c #78B609",
"'  c #6FA31C",
"]  c #77A619",
"[  c #72A515",
"{  c #65822D",
"}  c #748B21",
"|  c #6E9223",
" . c #799C27",
".. c #67823B",
"X. c #748C38",
"o. c #78903A",
"O. c #7E9C3B",
"+. c #7BA728",
"@. c #7C9546",
"#. c #7F8B52",
"$. c #778948",
"%. c #89B617",
"&. c #8D8A37",
"*. c #83A726",
"=. c #87A134",
"-. c #95B639",
";. c #838047",
":. c #849342",
">. c #80805C",
",. c #848C5D",
"<. c #8A865F",
"1. c #988151",
"2. c #9E835D",
"3. c #879853",
"4. c #96985C",
"5. c #A4825C",
"6. c #AE875A",
"7. c #AE885B",
"8. c #B48B5B",
"9. c #BA8D5B",
"0. c #93AA45",
"q. c #97B24D",
"w. c #8E826E",
"e. c #968067",
"r. c #9D8262",
"t. c #93816D",
"y. c #9D856A",
"u. c #938A6E",
"i. c #929263",
"p. c #8F8171",
"a. c #948573",
"s. c #998773",
"d. c #968975",
"f. c #9A8A75",
"g. c #96897A",
"h. c #9C8D7B",
"j. c #9D927D",
"k. c #9D9074",
"l. c #A28462",
"z. c #AC8B65",
"x. c #A4896B",
"c. c #AA8C69",
"v. c #A68865",
"b. c #B18F68",
"n. c #B1926A",
"m. c #BB9569",
"M. c #A28C72",
"N. c #A08F7C",
"B. c #AB9171",
"V. c #A3927E",
"C. c #AA967E",
"Z. c #A59C7D",
"A. c #B59C7E",
"S. c #B89E7F",
"D. c #BB9970",
"F. c #96A064",
"G. c #A3A26E",
"H. c #BEA07D",
"J. c #C69964",
"K. c #C29B69",
"L. c #C09C72",
"P. c #CBA16E",
"I. c #CCA573",
"U. c #C0A27F",
"Y. c #9F9181",
"T. c #A59583",
"R. c #A89681",
"E. c #A79881",
"W. c #AB9985",
"Q. c #AD9D8A",
"!. c #B19D86",
"~. c #B99F80",
"^. c #B19F89",
"/. c #AEA089",
"(. c #B3A287",
"). c #B5A28C",
"_. c #B9A58F",
"`. c #B5A491",
"'. c #BAA791",
"]. c #B8A794",
"[. c #BAA691",
"{. c #BCA993",
"}. c #BAA995",
"|. c #BDAA95",
" X c #BFAC96",
".X c #BEAA95",
"XX c #BFAD98",
"oX c #C2A480",
"OX c #C0AD97",
"+X c #C1AE99",
/* pixels */
" XN.a Y c.~.H.0 d a.2.d S h._._..Xh.a P n.~.oX0 f a.2.d F g._._.",
"f.< 8.F ^.[.`.A v V !.s.c.R }.{.h.+ 8.F Q.`.[.y ^ t W.k.c.R {.{.",
"5 t.R.H T.).!.i A `.{.[.T.x 8 w 1 a.C.5.T.).).5 N /._.}.V.x 5 w ",
").{. X:.=.(.T.q d _._._.s.m.J.2.^.{. XP 2 ).E.@ V _._._.a.K.J.r.",
"`.{.).t ) 0 0 H n u a.s.5 M.i.*.).{.).u 5.w 8 H C u a.s.5 M.M.J ",
"t.R.h.< s.Y z.Q.C.l + @ D P o.-.3.R.k.1 V.E z.Q.C.} _ * F d a 8.",
"8.N r 5.w c V._.{.B.D./.).g.X.q.) 9 r 5.u x C.).).X.) ,.`.g.f.I.",
"z.h.}.].h.c./..X.Xh.R.XX.X_.^.,.> d.}.}.d.c.T.{.}.w.N. X X[.).j.",
"8.V d Y E I  X_.'.h.T [._.^._.R 7.a o.0.;.Y ].).{.g.Y `._.).).R ",
"E.].W.w.n.N ^.)._.a.e a.a.d e N Z.{.V.,.;.N ).^.{.p.a Y s.d e a ",
".X{.).E.G q f.)._.2 I c d P 2.W. X[.).Q.r z p.).).2 Y r d P 5.Q.",
"Q.`.).T N Z   X . q 6 g.+XT.e R.Q._.^.T N P   , . ; w a..XR.V V.",
"h.V.a.8 J p 6.r 7 <.| ).`.E.0 u f.V.a.5 r.u 8.q q t.E T.[.V.z i ",
"< w x t.^.Q.y.h.u.+.] Z.[.V.0 H < w c E ^.Q.x.g.s.a L N.`.j.z F ",
"g.E I.T.).h.6 a.^.@.` ! U s V T.g.E L.W.).f.e a.).h.I.q P s A T.",
"+XT.l.w 5 $ 8.U ^.E.: w.G r.W..X+XT.H i 3 6 8.P ^.`.E g.W r.Q.+X",
"OXN.N Y v.~.oX8 s s.L d S f._.`.XXV.a d z.A.(.6 j s.K i H g.).[.",
"Q , 9.L ^.[.^.A b C ^.V.x.Q OX Xg.O 9.5.)._._.C b N ).V.c.R  X X",
"8 W R.W Y.).!.i I [.`.'.T.x 8 8 1 s.R.l.j.[.).9 E `.[.[.Y.x 8 8 ",
"Q.+X|.Z i ).R.6 B `._._.s.K.J.W W. X'.I 2 _.W.+ Z [._._.s.K.J.r.",
"}.OX^.B F 3 < K c p R.W.1 s.M.H ).|.).p &.+. .1.b p R.R.2 f.M.J ",
"Q R.M.< Y.E b.Q.C.l o + S P a m.t.R.k.1 k.F.' j.R.l o + F j a 8.",
"8.N i L w c T.).[.B.D.!.).h.u.I.9.= ~ 1.9 / $._.`.B.D.W.).h.s.I.",
"z.g.`.|.h.c.Q.|.XXM.V.+X'._._.V.z.g.Q.`.h.c.Q..XXXs.R.XX X_.).h.",
"6.V B I G I  X).[.h.U [.).^.).R 7.N d P A Y [.).[.h.Y `.`.^.^.R ",
"R.).W.Q b.N ).).[.t.r a.a.d w a R.`.Q.a.c.V ).^.`.a.N Y a.s e N ",
"+X}.).Q. .) a.!.W.1 P C d Y 5.Q.XX[.).W.r r a.^.Q.2 P r d I z.W.",
"^.).^.C.=.{ . 4 X.= a f..XT.e T.Q.[.).R z B . 4 < 7 a a. XT.C N.",
"N.V.i.[ ~ : 6.r = h A /.`.W.0 u h.V.t.w H p 7.e $ a.G T.[.T.z i ",
"< u > ..R.Q.e.f.s.i F Y.`.j.6 F < w x t.).Q.y.s.f.) %.G.`.h.z K ",
"g.Y P.j.).s.0 s._.N.L.6 P p V Q.h.Y K.R.).s.r a.).3.` ~ B d A W.",
"+XT.l.w 3 # 7.R ).^.r.T.G W W.OX+XT.r.i 3 $ 6.U )./.: Z E E Q.XX"
};
