/* XPM */
static char *d494d61515f84052b5fd6ce34de05749oWYQsmehcUSHa3Nk[] = {
/* columns rows colors chars-per-pixel */
"32 33 219 2 ",
"   c None",
".  c #1E1E1E",
"X  c #1B1816",
"o  c #251F1B",
"O  c #27221E",
"+  c #3A321E",
"@  c #2F301B",
"#  c #1D1E22",
"$  c #1E2027",
"%  c #222325",
"&  c #2C2622",
"*  c #2B2A2A",
"=  c #242428",
"-  c #342D25",
";  c #3B3224",
":  c #38332A",
">  c #272A36",
",  c #2C303E",
"<  c #343233",
"1  c #383737",
"2  c #48361B",
"3  c #433B23",
"4  c #433A2C",
"5  c #563A21",
"6  c #443D34",
"7  c #483E34",
"8  c #3B4C1B",
"9  c #544B1C",
"0  c #65431C",
"q  c #754C1E",
"w  c #6B5C19",
"e  c #4D4424",
"r  c #4B472A",
"t  c #554827",
"y  c #5D5625",
"u  c #4C4233",
"i  c #48433D",
"p  c #514639",
"a  c #544A3C",
"s  c #5C4D3A",
"d  c #534836",
"f  c #59513C",
"g  c #694722",
"h  c #774D21",
"j  c #614D37",
"k  c #64533E",
"l  c #6D583E",
"z  c #715C3F",
"x  c #685B28",
"c  c #5F7B20",
"v  c #766525",
"b  c #6C7732",
"n  c #2D3648",
"m  c #323D54",
"M  c #30384E",
"N  c #364358",
"B  c #534F49",
"V  c #5C5244",
"C  c #5F564A",
"Z  c #56534F",
"A  c #655542",
"S  c #645945",
"D  c #6D5B46",
"F  c #685B49",
"G  c #745E44",
"H  c #745F47",
"J  c #685E55",
"K  c #676443",
"L  c #73624E",
"P  c #7B654B",
"I  c #786649",
"U  c #757D41",
"Y  c #676159",
"T  c #746554",
"R  c #7D6A53",
"E  c #7C6C5A",
"W  c #766858",
"Q  c #7D7759",
"!  c #585F64",
"~  c #6C6A66",
"^  c #796D61",
"/  c #7B7166",
"(  c #6E7374",
")  c #8C581F",
"_  c #915A1E",
"`  c #88751B",
"'  c #895722",
"]  c #955E20",
"[  c #B16E26",
"{  c #8B772B",
"}  c #C27827",
"|  c #846A4B",
" . c #866949",
".. c #967B4E",
"X. c #826C52",
"o. c #8A7254",
"O. c #87725A",
"+. c #9D7B54",
"@. c #927A5D",
"#. c #9C7C58",
"$. c #937856",
"%. c #8F704D",
"&. c #A17E57",
"*. c #837564",
"=. c #8C7964",
"-. c #8A7C6B",
";. c #877868",
":. c #947D63",
">. c #997F61",
",. c #877D71",
"<. c #5F881A",
"1. c #688E19",
"2. c #689414",
"3. c #72A912",
"4. c #638228",
"5. c #749131",
"6. c #6E8046",
"7. c #AC9413",
"8. c #B39B14",
"9. c #9C852C",
"0. c #B99D2C",
"q. c #BA9D31",
"w. c #B19832",
"e. c #AE9430",
"r. c #87A134",
"t. c #BEA12D",
"y. c #89B617",
"u. c #EB8D1F",
"i. c #DABB0D",
"p. c #DEBE17",
"a. c #CAAC1C",
"s. c #DB8629",
"d. c #F89424",
"f. c #F69427",
"g. c #E98D24",
"h. c #CCAE25",
"j. c #DDC011",
"k. c #E7C60C",
"l. c #F5D20C",
"z. c #F9D60B",
"x. c #FCD808",
"c. c #FCD807",
"v. c #E7C613",
"b. c #F1CE12",
"n. c #F8D512",
"m. c #FCDB24",
"M. c #F1D335",
"N. c #81855C",
"B. c #9F825B",
"V. c #8B914A",
"C. c #A4835C",
"Z. c #AC885B",
"A. c #B48B5C",
"S. c #B98D5B",
"D. c #8F806F",
"F. c #94826E",
"G. c #9B8264",
"H. c #938473",
"J. c #9A8975",
"K. c #958879",
"L. c #9C8D7B",
"P. c #988873",
"I. c #9D927D",
"U. c #929263",
"Y. c #AC8C64",
"T. c #A78A68",
"R. c #B18F68",
"E. c #B79668",
"W. c #A08F7C",
"Q. c #A28C72",
"!. c #A3917E",
"~. c #AA9679",
"^. c #B89B7A",
"/. c #A3A26E",
"(. c #B9A64C",
"). c #C59C66",
"_. c #C49C6A",
"`. c #CBA26E",
"'. c #C8A477",
"]. c #DDB374",
"[. c #D1AA71",
"{. c #E8BC7A",
"}. c #D5C157",
"|. c #F8CA7F",
" X c #577D95",
".X c #467FA6",
"XX c #7B909D",
"oX c #538BB2",
"OX c #7EA1B6",
"+X c #898886",
"@X c #9F9181",
"#X c #A59582",
"$X c #A99681",
"%X c #AA9985",
"&X c #AD9C8A",
"*X c #B19F89",
"=X c #B29D84",
"-X c #AEA089",
";X c #B5A28C",
":X c #B8A58F",
">X c #B3A287",
",X c #A6A69F",
"<X c #B6A491",
"1X c #B9A691",
"2X c #BDAA95",
"3X c #BFAD98",
"4X c #BBBBB7",
"5X c #B1B0AB",
"6X c #8FA3AF",
"7X c #C1AE99",
"8X c #C0AD97",
"9X c #C2A480",
"0X c #FCCC81",
"qX c #80ADCB",
"wX c #ABBDC5",
"eX c #A0C5DB",
"rX c #B4D2E0",
"tX c #C7C6C3",
"yX c #EEF2F2",
/* pixels */
"                                                                ",
"2XW.P ;.R.=X^.I E P.&.^ $.L.:X:X8X^ F *.R.>X9XI Q P.B.E #.K.:X:X",
"L.A A.+.*X:X:X@.%.X.=XH.7 ;.8X1XF y t %.-X<X;XK 2.U =XJ.T.-.2X1X",
"D F.~.T.#X;X=XJ O.<X1XW ` w u p v i.M.f K.W V u K >X:X2X#X| L H ",
"-X2X3XV.r.>X!.u r ;.L.i a.k.` y a.c.z.(.a V.}.V L :X<X<XH._.).G.",
"2X2X;Xb 1.I H I ` 8.` t p.c.c.v.l.c.x.m.M.n.m.F H J ;.,.F Q.Q.$.",
"D.#XL.k P.:.Y.,.x b.z.p.b.c.x.x.c.x.x.x.n.x.m.F i r 8 y +.O.R Y.",
"A.| R C.H P / J ; h.l.c.x.x.c.c.c.c.c.x.x.x.n.M.m.j.8 U.*XK.J.`.",
"Y.@X2X<XD.7 v 9.e.q.v.x.x.c.x.c.c.c.c.c.c.c.c.c.c.w ;.3X3X:X:XL.",
"A.X.E =.=.L x e.q.t.v.x.c.x.l.k.j.i.j.k.k.z.c.c.l.w f ;.I.>X;X-.",
"#X<X&XD.T.A e 9.q.q.0.8.` y 9 + f r 6 ; e w w 7.i.b.7.e ^ E P R ",
"3X2X;X#Xa + w.q.q.v ; > n m = B tX5XY B ( ,X< > @ 8.e k E *.Z.%X",
"&X:X>X;.R F ; { e * n m m N , ~ 4X4Xi Y ,XtX+Xn n y 4 -.3X#Xo.!.",
"L.!.F.L @.W 3 @ n n n m m n = o * * * * * B 1 n m % + ^ 2X!.| T ",
"k L  .F.&XK.- * n , > < < . . O u k S k s 7 % $ > . s Y 1XL.P +.",
"K.:.`.#X:X-.a < $ 3 3 $.B 5X6XXXY $.{.|.{.I ~ ( < - `.P *.E o.#X",
"7X#XT.L D l  .A j @ 6 Z./ yXoX XwXE 0X0X]./ eXOX! 6 G.H.G.G.%X3X",
"7X@XP ;.T.=X:.k E.u d [.Y yXqXoX4XR 0X0X].,.rXoXN i +.W #.K.;X:X",
"J.A S.&.*X1X*XV $.H o.].#.Z +X+XA `.|.{.0XR ~ C : S >X!.R.;.3X2X",
"D :.%X&.$X*X*XH 6 6 p #.{.Y.z ..|.0X0X|.0X|...k d &X<X2X@X .L L ",
"&X2X2X*.T *X$XG E :XL.W p 7 d #.E.`.`.E.C.%.k u L 1X:X:XH.).).>.",
"2X2X*XW &.D A &.%.W #X&XO > = , , + 0 % . <.5.N.%.T $X%XF J.Q.$.",
":.@XW.A @X:.R.*X~. .j 7 g h & < < 5 [ - X K 3.@X$X .j j +.*.R A.",
"R.X.| &.H  .$X*X1X~.E.1 5 h ' f.f.) s.] 2 @ U -X<XR.^.$X;XP.P.'.",
"R.J.<X<X@XT.&X7X2XL.;.p s O [ d.d._ g.' g ; B 2X3XK.~.7X8X:X*XW.",
"Y.X.O.=.=.O.8X<X1XL.V $.{.u [ d.d.] u.' ) s 6 :X1XL.;.:X:X*X*X-.",
"$X<X%X-.R.X.*X*X1XH.A :  .+ } f.d.] g.' q ; C ;X1XH.X.-.H.W R X.",
"8X:X;X%Xr.1.J.*X*XS *.| V o 5 0 4 ; 2 0 & D H.&X&XA *.| O.*.Y.%X",
"&X;X:X%X5.b u S 5.b R J.2X& h ) / T 5 h - O.u F A z R F.2X#Xo.W.",
"!.!.U.2.1.b Z.I c O.o.;X<X6 # . K.;.% $ A W Z.P z P.@.~.1X@X .T ",
"A L b 5.#X-XF.J.K.P &.@X<XH.p P A H G W &X-XG.K.J.1.y./.<X@X| #.",
"L.=.`.I.;XP.I P.*X@X`.H *.E O.#X@X:._.$X;XH.R P.<XV.3.c *.X.O.#X",
"3X#XT.L F l Z.-.;X&X>.#X@.>.%X8X8X#XG.L D z A.;.;X&Xb 6.>.>.&X7X"
};
