/* XPM */
static char *fc13e582fef44191dc984a2a612b940blNJeQd2b7Udg49gc[] = {
/* columns rows colors chars-per-pixel */
"32 32 171 2 ",
"   c #150E06",
".  c #190F06",
"X  c #1B1206",
"o  c #171108",
"O  c #1C130B",
"+  c #1C1912",
"@  c #201706",
"#  c #261A06",
"$  c #291C06",
"%  c #22160B",
"&  c #29170C",
"*  c #241A0C",
"=  c #2A1D0C",
"-  c #251D10",
";  c #2A1E11",
":  c #2C2007",
">  c #2C210D",
",  c #32240E",
"<  c #272013",
"1  c #2C2213",
"2  c #2C231A",
"3  c #2F281B",
"4  c #322512",
"5  c #362A14",
"6  c #392B15",
"7  c #30271E",
"8  c #32291C",
"9  c #3A2D1B",
"0  c #3C311D",
"q  c #2F2B22",
"w  c #342D21",
"e  c #3C2F20",
"r  c #322F28",
"t  c #3D3224",
"y  c #36312A",
"u  c #39332C",
"i  c #393530",
"p  c #3E3A31",
"a  c #402D1C",
"s  c #42341F",
"d  c #433524",
"f  c #453825",
"g  c #443629",
"h  c #45392A",
"j  c #4A3D2D",
"k  c #433E34",
"l  c #4B3D31",
"z  c #443E39",
"x  c #4C412F",
"c  c #4C4233",
"v  c #45413B",
"b  c #4A423D",
"n  c #514434",
"m  c #544836",
"M  c #534639",
"N  c #554A3C",
"B  c #5A4C3D",
"V  c #4C4743",
"C  c #4F4A42",
"Z  c #554D40",
"A  c #5B4D41",
"S  c #514D48",
"D  c #594F48",
"F  c #5D5343",
"G  c #55514D",
"H  c #5F554C",
"J  c #585452",
"K  c #625244",
"L  c #60564E",
"P  c #645A4D",
"I  c #655C51",
"U  c #685E57",
"Y  c #6A614F",
"T  c #676157",
"R  c #6A6255",
"E  c #6A645B",
"W  c #71675A",
"Q  c #746B5D",
"!  c #786C5C",
"~  c #676462",
"^  c #6C6761",
"/  c #6C6963",
"(  c #746C64",
")  c #796F60",
"_  c #767064",
"`  c #7B7265",
"'  c #77726A",
"]  c #7C746B",
"[  c #7F7770",
"{  c #7E7A75",
"}  c #7E7A78",
"|  c #82796F",
" . c #837C74",
".. c #887F75",
"X. c #847E79",
"o. c #897F7B",
"O. c #8B8377",
"+. c #86817A",
"@. c #8B837C",
"#. c #90877E",
"$. c #868481",
"%. c #8B8681",
"&. c #8E8983",
"*. c #938C85",
"=. c #938E89",
"-. c #989086",
";. c #95918B",
":. c #9B938C",
">. c #9A9691",
",. c #9E9A95",
"<. c #9F9B98",
"1. c #A39D96",
"2. c #A29D9A",
"3. c #A5A19C",
"4. c #A7A6A2",
"5. c #AAA6A3",
"6. c #ADA9A5",
"7. c #AFAEAC",
"8. c #B0ADA9",
"9. c #B4B1AF",
"0. c #B6B5B3",
"q. c #B9B7B4",
"w. c #BAB7B1",
"e. c #BCB9B4",
"r. c #BEBDBB",
"t. c #C2BFBD",
"y. c #C3BFBF",
"u. c #C2C0BE",
"i. c #C6C5C5",
"p. c #C6C6C5",
"a. c #C5C4C2",
"s. c #C8C5C3",
"d. c #C9C7C5",
"f. c #C8C6C5",
"g. c #CAC8C6",
"h. c #C9C8C5",
"j. c #C8C8C8",
"k. c #CBCCC9",
"l. c #CFCDCB",
"z. c #CECCCC",
"x. c #D0CECB",
"c. c #D1CFCC",
"v. c #D2D0CE",
"b. c #D2D1CE",
"n. c #D4D3D1",
"m. c #D7D5D2",
"M. c #D5D4D3",
"N. c #D9D7D6",
"B. c #DAD9D6",
"V. c #DFDEDD",
"C. c #DEDFDD",
"Z. c #DFDFDE",
"A. c #DCDBD9",
"S. c #E1DEDE",
"D. c #E0E0DF",
"F. c #E0E0DE",
"G. c #E6E5E3",
"H. c #E8E6E5",
"J. c #E9E9E6",
"K. c #EBE9E7",
"L. c #EAE9E6",
"P. c #EEEDEC",
"I. c #F0EFED",
"U. c #F8F7F3",
"Y. c #F8F7F5",
"T. c #F8F7F5",
"R. c #FBFBFB",
"E. c #FDFDFC",
"W. c #FFFFFE",
"Q. c white",
"!. c #FFFFFE",
/* pixels */
"* > ; ; = ; 4 6 4 > > = = ; ; = > 1 4 4 4 8 4 4 4 1 > = 1 = = * ",
"= * O O % & % ; < O * * O % % % ; * * * * > - % % O = % O O . % ",
"> * O O X 1 J 0.p.7.t ' p.p.y.( P 0.p.p.$.j 5.p.r.~ 1 O     . = ",
"= * O % X e f.R.!.F.x ;.!.!.Y.@.Q J.!.!.5.n m.!.!.N.h * O   . = ",
"4 * O O X 6 =.6.6.>.0 R 5.6.3.I Z ,.5.5.' t *.5.6.,.g % X O X = ",
"4 > 1 9 e 4 9 l F n 5 t N N m d d M m M f 4 c M m t > 9 t = - 1 ",
"6 < J p.&.4 O k k.p.t +.S.S.B.] R k.C.F.;.h q.n.S O ; ] c.~ % 4 ",
"5 > 0.E.<.g i O O.b.c *.!.E.U.@.! L.E.!.5.h j.,.+ y g @.!.f.2 4 ",
", > p.!.2.l f. .% z g =.!.!.Y.@.) K.!.R.5.f v O E h.m @.!.M.3 4 ",
", > 0.G.=.g a.M.z o 4 o.H.H.F.[ W n.H.H.>.9 O r h.x.x ] G.u.2 = ",
", 1 c B j 4 l Z h 4 , d M A M d f B K B t 4 2 j B M 5 d N c < : ",
"> = { ,.U 9 $.1.1.%.s * u %.>.H N =.=.b X 4 X.,.1.=.t H ,.+.< : ",
"= > h.!.2.n A.R.!.S.m t o H F.@._ C./ O 8 d b.!.!.G.c +.!.M.3 = ",
": 4 s.!.1.n S.R.!.S.B +.G 1  .] R +.1 b *.j m.!.!.L.n @.!.M.3 = ",
"= ; s.E.,.l N.R.!.S.m ;.K. .+ 1 2 + ^ A.3.x b.E.E.G.n O.R.M.q & ",
": 1 ] -.I a | *.:.O.s Y *. .2 * # - ] *.R 9 | *.*.O.d F -.| 1 * ",
"$ * I ] N 0 R ` ] Q s N ) W 2 = > < R _ Z 5 R ` ` W 0 m _ R < $ ",
"= * e.P.;.j k.I.I.b.x @.G.$.+ ; 1 + _ B.<.g p.P.I.B.n  .I.h.2 $ ",
"= ; f.!.2.j B.!.!.F.n @.^ ; E ( Y / < P ;.j m.!.!.H.B *.!.M.3 = ",
"& ; f.!.2.n A.!.!.F.n k O z B.@.) M.G O p f M.!.!.H.N #.!.m.8 * ",
"= * *.e.] f 1.e.e.3.d O r >.8.E F 4.3.z O 8 :.e.w.5.h W w.,.2 * ",
"* * l K x 6 n K B d 5 6 l N M d t M N l 8 , g M B n 6 g A l = # ",
"= * 5.A.*.j r.k.V o >  .N.N.n.( P p.B.N.*.9 O p f.y.j ` N.0.2 & ",
"> - p.!.3.m b.>.* q 6 ;.!.!.Y.@.Q J.!.!.6.j y % X.n.n O.!.M.q = ",
"> * y.!.2.n C % ^ y.h ;.!.!.Y.o.Q K.!.!.6.h y. .% z h @.!.v.2 = ",
"> * ~ A.;.0 O u v.l.j %.P.P.H.] R M.P.P.,.g a.A.V O = | G.{ O * ",
"= * ; h h 5 1 t F M 6 d M A D t 9 M A B h 4 c Z l ; > f j ; * * ",
"1 * O O * 9 [ ;.=.X.9 H *.=.*.D c X.=.*.U 0 ] *.*.X.g * % O X & ",
"4 *   X X 0 b.E.!.A.c ;.!.!.U.+.W H.!.!.5.c b.!.!.S.l ; .   . & ",
"4 O   X X 1 / h.M.r.h [ M.M.k.( I a.M.M.=.j 0.M.M.} 4 *     . & ",
"= X X X @ > ; 9 e 3 = 1 8 w 8 < < w t w 1 1 8 8 w 1 = = X . . % ",
"= # = = > 1 4 6 6 > > > = , : = * 5 5 4 4 5 > > 4 8 4 , = & % # "
};
